<svg xmlns="http://www.w3.org/2000/svg" version="1.1" xmlns:xlink="http://www.w3.org/1999/xlink" xmlns:svgjs="http://svgjs.com/svgjs" width="1440" height="560" preserveAspectRatio="none" viewBox="0 0 1440 560">
    <g mask="url(&quot;#SvgjsMask1000&quot;)" fill="none">
        <rect width="1440" height="560" x="0" y="0" fill="#0e2a47"></rect>
        <path d="M-78.2 403.67L-78.2 403.67" stroke="#132e65" stroke-width="1.5"></path>
        <path d="M-78.2 403.67L-53.31 491.53" stroke="#132e65" stroke-width="1.5"></path>
        <path d="M-78.2 403.67L42.02 365.61" stroke="#132e65" stroke-width="1.5"></path>
        <path d="M-78.2 403.67L89.6 510.54" stroke="#132e65" stroke-width="1.5"></path>
        <path d="M-78.2 403.67L-41.55 678.97" stroke="#132e65" stroke-width="1.5"></path>
        <path d="M-78.2 403.67L54.47 652.69" stroke="#132e65" stroke-width="1.5"></path>
        <path d="M-53.31 491.53L-53.31 491.53" stroke="#132e65" stroke-width="1.5"></path>
        <path d="M-41.55 678.97L-41.55 678.97" stroke="#132e65" stroke-width="1.5"></path>
        <path d="M-41.55 678.97L54.47 652.69" stroke="#132e65" stroke-width="1.5"></path>
        <path d="M-41.55 678.97L-53.31 491.53" stroke="#132e65" stroke-width="1.5"></path>
        <path d="M-41.55 678.97L89.6 510.54" stroke="#132e65" stroke-width="1.5"></path>
        <path d="M-41.55 678.97L218.62 677.74" stroke="#132e65" stroke-width="1.5"></path>
        <path d="M42.02 365.61L42.02 365.61" stroke="#132e65" stroke-width="1.5"></path>
        <path d="M42.02 365.61L89.6 510.54" stroke="#132e65" stroke-width="1.5"></path>
        <path d="M42.02 365.61L-53.31 491.53" stroke="#132e65" stroke-width="1.5"></path>
        <path d="M42.02 365.61L233.3 351.18" stroke="#132e65" stroke-width="1.5"></path>
        <path d="M42.02 365.61L229.68 502.56" stroke="#132e65" stroke-width="1.5"></path>
        <path d="M89.6 510.54L89.6 510.54" stroke="#132e65" stroke-width="1.5"></path>
        <path d="M89.6 510.54L229.68 502.56" stroke="#132e65" stroke-width="1.5"></path>
        <path d="M89.6 510.54L-53.31 491.53" stroke="#132e65" stroke-width="1.5"></path>
        <path d="M89.6 510.54L54.47 652.69" stroke="#132e65" stroke-width="1.5"></path>
        <path d="M89.6 510.54L218.62 677.74" stroke="#132e65" stroke-width="1.5"></path>
        <path d="M54.47 652.69L54.47 652.69" stroke="#132e65" stroke-width="1.5"></path>
        <path d="M233.3 351.18L233.3 351.18" stroke="#132e65" stroke-width="1.5"></path>
        <path d="M233.3 351.18L229.68 502.56" stroke="#132e65" stroke-width="1.5"></path>
        <path d="M229.68 502.56L229.68 502.56" stroke="#132e65" stroke-width="1.5"></path>
        <path d="M218.62 677.74L218.62 677.74" stroke="#132e65" stroke-width="1.5"></path>
        <path d="M218.62 677.74L366.23 702.73" stroke="#132e65" stroke-width="1.5"></path>
        <path d="M218.62 677.74L54.47 652.69" stroke="#132e65" stroke-width="1.5"></path>
        <path d="M218.62 677.74L229.68 502.56" stroke="#132e65" stroke-width="1.5"></path>
        <path d="M393.41 348.95L393.41 348.95" stroke="#132e65" stroke-width="1.5"></path>
        <path d="M393.41 348.95L521.35 354.32" stroke="#132e65" stroke-width="1.5"></path>
        <path d="M393.41 348.95L233.3 351.18" stroke="#132e65" stroke-width="1.5"></path>
        <path d="M393.41 348.95L389.28 531.92" stroke="#132e65" stroke-width="1.5"></path>
        <path d="M389.28 531.92L389.28 531.92" stroke="#132e65" stroke-width="1.5"></path>
        <path d="M389.28 531.92L540.51 519.7" stroke="#132e65" stroke-width="1.5"></path>
        <path d="M389.28 531.92L229.68 502.56" stroke="#132e65" stroke-width="1.5"></path>
        <path d="M389.28 531.92L366.23 702.73" stroke="#132e65" stroke-width="1.5"></path>
        <path d="M366.23 702.73L366.23 702.73" stroke="#132e65" stroke-width="1.5"></path>
        <path d="M366.23 702.73L505.89 665.03" stroke="#132e65" stroke-width="1.5"></path>
        <path d="M366.23 702.73L229.68 502.56" stroke="#132e65" stroke-width="1.5"></path>
        <path d="M366.23 702.73L540.51 519.7" stroke="#132e65" stroke-width="1.5"></path>
        <path d="M521.35 354.32L521.35 354.32" stroke="#132e65" stroke-width="1.5"></path>
        <path d="M521.35 354.32L655.33 339.33" stroke="#132e65" stroke-width="1.5"></path>
        <path d="M521.35 354.32L540.51 519.7" stroke="#132e65" stroke-width="1.5"></path>
        <path d="M521.35 354.32L389.28 531.92" stroke="#132e65" stroke-width="1.5"></path>
        <path d="M521.35 354.32L655.23 534.95" stroke="#132e65" stroke-width="1.5"></path>
        <path d="M540.51 519.7L540.51 519.7" stroke="#132e65" stroke-width="1.5"></path>
        <path d="M540.51 519.7L655.23 534.95" stroke="#132e65" stroke-width="1.5"></path>
        <path d="M540.51 519.7L505.89 665.03" stroke="#132e65" stroke-width="1.5"></path>
        <path d="M505.89 665.03L505.89 665.03" stroke="#132e65" stroke-width="1.5"></path>
        <path d="M505.89 665.03L666.01 688.82" stroke="#132e65" stroke-width="1.5"></path>
        <path d="M505.89 665.03L389.28 531.92" stroke="#132e65" stroke-width="1.5"></path>
        <path d="M505.89 665.03L655.23 534.95" stroke="#132e65" stroke-width="1.5"></path>
        <path d="M655.33 339.33L655.33 339.33" stroke="#132e65" stroke-width="1.5"></path>
        <path d="M655.33 339.33L849.36 362.08" stroke="#132e65" stroke-width="1.5"></path>
        <path d="M655.33 339.33L797.53 205.35" stroke="#132e65" stroke-width="1.5"></path>
        <path d="M655.33 339.33L655.23 534.95" stroke="#132e65" stroke-width="1.5"></path>
        <path d="M655.33 339.33L540.51 519.7" stroke="#132e65" stroke-width="1.5"></path>
        <path d="M655.33 339.33L808.22 493.49" stroke="#132e65" stroke-width="1.5"></path>
        <path d="M655.23 534.95L655.23 534.95" stroke="#132e65" stroke-width="1.5"></path>
        <path d="M655.23 534.95L666.01 688.82" stroke="#132e65" stroke-width="1.5"></path>
        <path d="M655.23 534.95L808.22 493.49" stroke="#132e65" stroke-width="1.5"></path>
        <path d="M666.01 688.82L666.01 688.82" stroke="#132e65" stroke-width="1.5"></path>
        <path d="M666.01 688.82L838.31 706.56" stroke="#132e65" stroke-width="1.5"></path>
        <path d="M666.01 688.82L540.51 519.7" stroke="#132e65" stroke-width="1.5"></path>
        <path d="M856.3 73.56L856.3 73.56" stroke="#132e65" stroke-width="1.5"></path>
        <path d="M856.3 73.56L797.53 205.35" stroke="#132e65" stroke-width="1.5"></path>
        <path d="M856.3 73.56L1004.16 80.73" stroke="#132e65" stroke-width="1.5"></path>
        <path d="M856.3 73.56L977.17 216.84" stroke="#132e65" stroke-width="1.5"></path>
        <path d="M797.53 205.35L797.53 205.35" stroke="#132e65" stroke-width="1.5"></path>
        <path d="M797.53 205.35L849.36 362.08" stroke="#132e65" stroke-width="1.5"></path>
        <path d="M797.53 205.35L977.17 216.84" stroke="#132e65" stroke-width="1.5"></path>
        <path d="M849.36 362.08L849.36 362.08" stroke="#132e65" stroke-width="1.5"></path>
        <path d="M849.36 362.08L973.59 350.01" stroke="#132e65" stroke-width="1.5"></path>
        <path d="M849.36 362.08L808.22 493.49" stroke="#132e65" stroke-width="1.5"></path>
        <path d="M849.36 362.08L945.35 494.04" stroke="#132e65" stroke-width="1.5"></path>
        <path d="M849.36 362.08L977.17 216.84" stroke="#132e65" stroke-width="1.5"></path>
        <path d="M808.22 493.49L808.22 493.49" stroke="#132e65" stroke-width="1.5"></path>
        <path d="M808.22 493.49L945.35 494.04" stroke="#132e65" stroke-width="1.5"></path>
        <path d="M838.31 706.56L838.31 706.56" stroke="#132e65" stroke-width="1.5"></path>
        <path d="M838.31 706.56L996.87 690.83" stroke="#132e65" stroke-width="1.5"></path>
        <path d="M1000.42 -102.25L1000.42 -102.25" stroke="#132e65" stroke-width="1.5"></path>
        <path d="M1000.42 -102.25L1130.32 -106.12" stroke="#132e65" stroke-width="1.5"></path>
        <path d="M1000.42 -102.25L1004.16 80.73" stroke="#132e65" stroke-width="1.5"></path>
        <path d="M1004.16 80.73L1004.16 80.73" stroke="#132e65" stroke-width="1.5"></path>
        <path d="M1004.16 80.73L1091.45 82.96" stroke="#132e65" stroke-width="1.5"></path>
        <path d="M1004.16 80.73L977.17 216.84" stroke="#132e65" stroke-width="1.5"></path>
        <path d="M977.17 216.84L977.17 216.84" stroke="#132e65" stroke-width="1.5"></path>
        <path d="M977.17 216.84L973.59 350.01" stroke="#132e65" stroke-width="1.5"></path>
        <path d="M977.17 216.84L1111.94 208.61" stroke="#132e65" stroke-width="1.5"></path>
        <path d="M973.59 350.01L973.59 350.01" stroke="#132e65" stroke-width="1.5"></path>
        <path d="M973.59 350.01L945.35 494.04" stroke="#132e65" stroke-width="1.5"></path>
        <path d="M973.59 350.01L1137.03 347.46" stroke="#132e65" stroke-width="1.5"></path>
        <path d="M973.59 350.01L1111.94 208.61" stroke="#132e65" stroke-width="1.5"></path>
        <path d="M973.59 350.01L808.22 493.49" stroke="#132e65" stroke-width="1.5"></path>
        <path d="M945.35 494.04L945.35 494.04" stroke="#132e65" stroke-width="1.5"></path>
        <path d="M945.35 494.04L1087.61 545.83" stroke="#132e65" stroke-width="1.5"></path>
        <path d="M996.87 690.83L996.87 690.83" stroke="#132e65" stroke-width="1.5"></path>
        <path d="M996.87 690.83L1131.39 711.24" stroke="#132e65" stroke-width="1.5"></path>
        <path d="M996.87 690.83L1087.61 545.83" stroke="#132e65" stroke-width="1.5"></path>
        <path d="M1130.32 -106.12L1130.32 -106.12" stroke="#132e65" stroke-width="1.5"></path>
        <path d="M1130.32 -106.12L1282.38 -85.32" stroke="#132e65" stroke-width="1.5"></path>
        <path d="M1130.32 -106.12L1091.45 82.96" stroke="#132e65" stroke-width="1.5"></path>
        <path d="M1130.32 -106.12L1238.21 62.66" stroke="#132e65" stroke-width="1.5"></path>
        <path d="M1091.45 82.96L1091.45 82.96" stroke="#132e65" stroke-width="1.5"></path>
        <path d="M1091.45 82.96L1111.94 208.61" stroke="#132e65" stroke-width="1.5"></path>
        <path d="M1111.94 208.61L1111.94 208.61" stroke="#132e65" stroke-width="1.5"></path>
        <path d="M1111.94 208.61L1137.03 347.46" stroke="#132e65" stroke-width="1.5"></path>
        <path d="M1111.94 208.61L1258.72 221.73" stroke="#132e65" stroke-width="1.5"></path>
        <path d="M1137.03 347.46L1137.03 347.46" stroke="#132e65" stroke-width="1.5"></path>
        <path d="M1137.03 347.46L1253.22 411.57" stroke="#132e65" stroke-width="1.5"></path>
        <path d="M1087.61 545.83L1087.61 545.83" stroke="#132e65" stroke-width="1.5"></path>
        <path d="M1131.39 711.24L1131.39 711.24" stroke="#132e65" stroke-width="1.5"></path>
        <path d="M1131.39 711.24L1250.63 671.32" stroke="#132e65" stroke-width="1.5"></path>
        <path d="M1131.39 711.24L1087.61 545.83" stroke="#132e65" stroke-width="1.5"></path>
        <path d="M1131.39 711.24L1282.5 538.87" stroke="#132e65" stroke-width="1.5"></path>
        <path d="M1282.38 -85.32L1282.38 -85.32" stroke="#132e65" stroke-width="1.5"></path>
        <path d="M1282.38 -85.32L1421.32 -63.66" stroke="#132e65" stroke-width="1.5"></path>
        <path d="M1282.38 -85.32L1238.21 62.66" stroke="#132e65" stroke-width="1.5"></path>
        <path d="M1282.38 -85.32L1435.99 74.78" stroke="#132e65" stroke-width="1.5"></path>
        <path d="M1282.38 -85.32L1091.45 82.96" stroke="#132e65" stroke-width="1.5"></path>
        <path d="M1282.38 -85.32L1540.66 -39.41" stroke="#132e65" stroke-width="1.5"></path>
        <path d="M1238.21 62.66L1238.21 62.66" stroke="#132e65" stroke-width="1.5"></path>
        <path d="M1238.21 62.66L1091.45 82.96" stroke="#132e65" stroke-width="1.5"></path>
        <path d="M1238.21 62.66L1258.72 221.73" stroke="#132e65" stroke-width="1.5"></path>
        <path d="M1258.72 221.73L1258.72 221.73" stroke="#132e65" stroke-width="1.5"></path>
        <path d="M1258.72 221.73L1137.03 347.46" stroke="#132e65" stroke-width="1.5"></path>
        <path d="M1258.72 221.73L1442.01 229.25" stroke="#132e65" stroke-width="1.5"></path>
        <path d="M1258.72 221.73L1253.22 411.57" stroke="#132e65" stroke-width="1.5"></path>
        <path d="M1253.22 411.57L1253.22 411.57" stroke="#132e65" stroke-width="1.5"></path>
        <path d="M1253.22 411.57L1282.5 538.87" stroke="#132e65" stroke-width="1.5"></path>
        <path d="M1253.22 411.57L1421.07 509.11" stroke="#132e65" stroke-width="1.5"></path>
        <path d="M1253.22 411.57L1459.55 400.56" stroke="#132e65" stroke-width="1.5"></path>
        <path d="M1253.22 411.57L1087.61 545.83" stroke="#132e65" stroke-width="1.5"></path>
        <path d="M1282.5 538.87L1282.5 538.87" stroke="#132e65" stroke-width="1.5"></path>
        <path d="M1282.5 538.87L1250.63 671.32" stroke="#132e65" stroke-width="1.5"></path>
        <path d="M1250.63 671.32L1250.63 671.32" stroke="#132e65" stroke-width="1.5"></path>
        <path d="M1250.63 671.32L1449.46 658.17" stroke="#132e65" stroke-width="1.5"></path>
        <path d="M1250.63 671.32L1087.61 545.83" stroke="#132e65" stroke-width="1.5"></path>
        <path d="M1421.32 -63.66L1421.32 -63.66" stroke="#132e65" stroke-width="1.5"></path>
        <path d="M1421.32 -63.66L1540.66 -39.41" stroke="#132e65" stroke-width="1.5"></path>
        <path d="M1421.32 -63.66L1435.99 74.78" stroke="#132e65" stroke-width="1.5"></path>
        <path d="M1421.32 -63.66L1581.92 48.04" stroke="#132e65" stroke-width="1.5"></path>
        <path d="M1435.99 74.78L1435.99 74.78" stroke="#132e65" stroke-width="1.5"></path>
        <path d="M1435.99 74.78L1581.92 48.04" stroke="#132e65" stroke-width="1.5"></path>
        <path d="M1435.99 74.78L1442.01 229.25" stroke="#132e65" stroke-width="1.5"></path>
        <path d="M1435.99 74.78L1540.66 -39.41" stroke="#132e65" stroke-width="1.5"></path>
        <path d="M1442.01 229.25L1442.01 229.25" stroke="#132e65" stroke-width="1.5"></path>
        <path d="M1442.01 229.25L1547.44 208.99" stroke="#132e65" stroke-width="1.5"></path>
        <path d="M1459.55 400.56L1459.55 400.56" stroke="#132e65" stroke-width="1.5"></path>
        <path d="M1459.55 400.56L1538.78 400.58" stroke="#132e65" stroke-width="1.5"></path>
        <path d="M1459.55 400.56L1421.07 509.11" stroke="#132e65" stroke-width="1.5"></path>
        <path d="M1421.07 509.11L1421.07 509.11" stroke="#132e65" stroke-width="1.5"></path>
        <path d="M1421.07 509.11L1542.92 524.6" stroke="#132e65" stroke-width="1.5"></path>
        <path d="M1421.07 509.11L1282.5 538.87" stroke="#132e65" stroke-width="1.5"></path>
        <path d="M1449.46 658.17L1449.46 658.17" stroke="#132e65" stroke-width="1.5"></path>
        <path d="M1449.46 658.17L1581.37 688.94" stroke="#132e65" stroke-width="1.5"></path>
        <path d="M1449.46 658.17L1421.07 509.11" stroke="#132e65" stroke-width="1.5"></path>
        <path d="M1449.46 658.17L1542.92 524.6" stroke="#132e65" stroke-width="1.5"></path>
        <path d="M1540.66 -39.41L1540.66 -39.41" stroke="#132e65" stroke-width="1.5"></path>
        <path d="M1540.66 -39.41L1581.92 48.04" stroke="#132e65" stroke-width="1.5"></path>
        <path d="M1540.66 -39.41L1547.44 208.99" stroke="#132e65" stroke-width="1.5"></path>
        <path d="M1581.92 48.04L1581.92 48.04" stroke="#132e65" stroke-width="1.5"></path>
        <path d="M1581.92 48.04L1547.44 208.99" stroke="#132e65" stroke-width="1.5"></path>
        <path d="M1547.44 208.99L1547.44 208.99" stroke="#132e65" stroke-width="1.5"></path>
        <path d="M1547.44 208.99L1435.99 74.78" stroke="#132e65" stroke-width="1.5"></path>
        <path d="M1547.44 208.99L1538.78 400.58" stroke="#132e65" stroke-width="1.5"></path>
        <path d="M1538.78 400.58L1538.78 400.58" stroke="#132e65" stroke-width="1.5"></path>
        <path d="M1538.78 400.58L1542.92 524.6" stroke="#132e65" stroke-width="1.5"></path>
        <path d="M1542.92 524.6L1542.92 524.6" stroke="#132e65" stroke-width="1.5"></path>
        <path d="M1581.37 688.94L1581.37 688.94" stroke="#132e65" stroke-width="1.5"></path>
        <path d="M1581.37 688.94L1542.92 524.6" stroke="#132e65" stroke-width="1.5"></path>
        <path d="M1581.37 688.94L1421.07 509.11" stroke="#132e65" stroke-width="1.5"></path>
        <circle r="5" cx="-78.2" cy="403.67" fill="#132e65"></circle>
        <circle r="5" cx="-53.31" cy="491.53" fill="#132e65"></circle>
        <circle r="5" cx="-41.55" cy="678.97" fill="#132e65"></circle>
        <circle r="5" cx="42.02" cy="365.61" fill="#132e65"></circle>
        <circle r="5" cx="89.6" cy="510.54" fill="#132e65"></circle>
        <circle r="5" cx="54.47" cy="652.69" fill="#132e65"></circle>
        <circle r="5" cx="233.3" cy="351.18" fill="#132e65"></circle>
        <circle r="5" cx="229.68" cy="502.56" fill="#132e65"></circle>
        <circle r="5" cx="218.62" cy="677.74" fill="#132e65"></circle>
        <circle r="5" cx="393.41" cy="348.95" fill="#132e65"></circle>
        <circle r="5" cx="389.28" cy="531.92" fill="#132e65"></circle>
        <circle r="5" cx="366.23" cy="702.73" fill="#132e65"></circle>
        <circle r="5" cx="521.35" cy="354.32" fill="#132e65"></circle>
        <circle r="5" cx="540.51" cy="519.7" fill="#132e65"></circle>
        <circle r="5" cx="505.89" cy="665.03" fill="#132e65"></circle>
        <circle r="5" cx="655.33" cy="339.33" fill="#132e65"></circle>
        <circle r="5" cx="655.23" cy="534.95" fill="#132e65"></circle>
        <circle r="5" cx="666.01" cy="688.82" fill="#132e65"></circle>
        <circle r="5" cx="856.3" cy="73.56" fill="#132e65"></circle>
        <circle r="5" cx="797.53" cy="205.35" fill="#132e65"></circle>
        <circle r="5" cx="849.36" cy="362.08" fill="#132e65"></circle>
        <circle r="5" cx="808.22" cy="493.49" fill="#132e65"></circle>
        <circle r="5" cx="838.31" cy="706.56" fill="#132e65"></circle>
        <circle r="5" cx="1000.42" cy="-102.25" fill="#132e65"></circle>
        <circle r="5" cx="1004.16" cy="80.73" fill="#132e65"></circle>
        <circle r="5" cx="977.17" cy="216.84" fill="#132e65"></circle>
        <circle r="5" cx="973.59" cy="350.01" fill="#132e65"></circle>
        <circle r="5" cx="945.35" cy="494.04" fill="#132e65"></circle>
        <circle r="5" cx="996.87" cy="690.83" fill="#132e65"></circle>
        <circle r="5" cx="1130.32" cy="-106.12" fill="#132e65"></circle>
        <circle r="5" cx="1091.45" cy="82.96" fill="#132e65"></circle>
        <circle r="5" cx="1111.94" cy="208.61" fill="#132e65"></circle>
        <circle r="5" cx="1137.03" cy="347.46" fill="#132e65"></circle>
        <circle r="5" cx="1087.61" cy="545.83" fill="#132e65"></circle>
        <circle r="5" cx="1131.39" cy="711.24" fill="#132e65"></circle>
        <circle r="5" cx="1282.38" cy="-85.32" fill="#132e65"></circle>
        <circle r="5" cx="1238.21" cy="62.66" fill="#132e65"></circle>
        <circle r="5" cx="1258.72" cy="221.73" fill="#132e65"></circle>
        <circle r="5" cx="1253.22" cy="411.57" fill="#132e65"></circle>
        <circle r="5" cx="1282.5" cy="538.87" fill="#132e65"></circle>
        <circle r="5" cx="1250.63" cy="671.32" fill="#132e65"></circle>
        <circle r="5" cx="1421.32" cy="-63.66" fill="#132e65"></circle>
        <circle r="5" cx="1435.99" cy="74.78" fill="#132e65"></circle>
        <circle r="5" cx="1442.01" cy="229.25" fill="#132e65"></circle>
        <circle r="5" cx="1459.55" cy="400.56" fill="#132e65"></circle>
        <circle r="5" cx="1421.07" cy="509.11" fill="#132e65"></circle>
        <circle r="5" cx="1449.46" cy="658.17" fill="#132e65"></circle>
        <circle r="5" cx="1540.66" cy="-39.41" fill="#132e65"></circle>
        <circle r="5" cx="1581.92" cy="48.04" fill="#132e65"></circle>
        <circle r="5" cx="1547.44" cy="208.99" fill="#132e65"></circle>
        <circle r="5" cx="1538.78" cy="400.58" fill="#132e65"></circle>
        <circle r="5" cx="1542.92" cy="524.6" fill="#132e65"></circle>
        <circle r="5" cx="1581.37" cy="688.94" fill="#132e65"></circle>
        <path d="M62.21 540.92L62.21 540.92" stroke="hsl(228.5, 77.2%, 51.5%)" stroke-width="1.5"></path>
        <path d="M62.21 540.92L-42.79 517.25" stroke="hsl(228.5, 77.2%, 51.5%)" stroke-width="1.5"></path>
        <path d="M62.21 540.92L72.65 669.29" stroke="hsl(228.5, 77.2%, 51.5%)" stroke-width="1.5"></path>
        <path d="M62.21 540.92L249.04 490.46" stroke="hsl(228.5, 77.2%, 51.5%)" stroke-width="1.5"></path>
        <path d="M62.21 540.92L245.62 649.43" stroke="hsl(228.5, 77.2%, 51.5%)" stroke-width="1.5"></path>
        <path d="M62.21 540.92L-90.67 700.79" stroke="hsl(228.5, 77.2%, 51.5%)" stroke-width="1.5"></path>
        <path d="M62.21 540.92L350.63 546.46" stroke="hsl(228.5, 77.2%, 51.5%)" stroke-width="1.5"></path>
        <path d="M72.65 669.29L72.65 669.29" stroke="hsl(228.5, 77.2%, 51.5%)" stroke-width="1.5"></path>
        <path d="M72.65 669.29L-90.67 700.79" stroke="hsl(228.5, 77.2%, 51.5%)" stroke-width="1.5"></path>
        <path d="M553.51 554.85L553.51 554.85" stroke="hsl(228.5, 77.2%, 51.5%)" stroke-width="1.5"></path>
        <path d="M553.51 554.85L518.39 678.8" stroke="hsl(228.5, 77.2%, 51.5%)" stroke-width="1.5"></path>
        <path d="M854.18 357.76L854.18 357.76" stroke="hsl(228.5, 77.2%, 51.5%)" stroke-width="1.5"></path>
        <path d="M854.18 357.76L703.22 356.54" stroke="hsl(228.5, 77.2%, 51.5%)" stroke-width="1.5"></path>
        <path d="M854.11 534.35L854.11 534.35" stroke="hsl(228.5, 77.2%, 51.5%)" stroke-width="1.5"></path>
        <path d="M854.11 534.35L798.94 657.97" stroke="hsl(228.5, 77.2%, 51.5%)" stroke-width="1.5"></path>
        <path d="M854.11 534.35L708.19 501.07" stroke="hsl(228.5, 77.2%, 51.5%)" stroke-width="1.5"></path>
        <path d="M1106.27 679.37L1106.27 679.37" stroke="hsl(228.5, 77.2%, 51.5%)" stroke-width="1.5"></path>
        <path d="M1106.27 679.37L987.8 710.32" stroke="hsl(228.5, 77.2%, 51.5%)" stroke-width="1.5"></path>
        <path d="M1106.27 679.37L1117.3 530.53" stroke="hsl(228.5, 77.2%, 51.5%)" stroke-width="1.5"></path>
        <path d="M1106.27 679.37L1264.33 654.9" stroke="hsl(228.5, 77.2%, 51.5%)" stroke-width="1.5"></path>
        <path d="M1106.27 679.37L1008.61 487.67" stroke="hsl(228.5, 77.2%, 51.5%)" stroke-width="1.5"></path>
        <path d="M1106.27 679.37L1309.35 488.77" stroke="hsl(228.5, 77.2%, 51.5%)" stroke-width="1.5"></path>
        <path d="M1106.27 679.37L1138.98 401.44" stroke="hsl(228.5, 77.2%, 51.5%)" stroke-width="1.5"></path>
        <path d="M1248.73 -89.3L1248.73 -89.3" stroke="hsl(228.5, 77.2%, 51.5%)" stroke-width="1.5"></path>
        <path d="M1248.73 -89.3L1293.37 52.82" stroke="hsl(228.5, 77.2%, 51.5%)" stroke-width="1.5"></path>
        <path d="M1248.73 -89.3L1434.15 100.78" stroke="hsl(228.5, 77.2%, 51.5%)" stroke-width="1.5"></path>
        <path d="M1248.73 -89.3L1240.15 219.39" stroke="hsl(228.5, 77.2%, 51.5%)" stroke-width="1.5"></path>
        <path d="M1248.73 -89.3L1147.2 210.85" stroke="hsl(228.5, 77.2%, 51.5%)" stroke-width="1.5"></path>
        <path d="M1248.73 -89.3L1586.82 -65.13" stroke="hsl(228.5, 77.2%, 51.5%)" stroke-width="1.5"></path>
        <path d="M1248.73 -89.3L1540.05 94.56" stroke="hsl(228.5, 77.2%, 51.5%)" stroke-width="1.5"></path>
        <path d="M1434.15 100.78L1434.15 100.78" stroke="hsl(228.5, 77.2%, 51.5%)" stroke-width="1.5"></path>
        <path d="M1434.15 100.78L1540.05 94.56" stroke="hsl(228.5, 77.2%, 51.5%)" stroke-width="1.5"></path>
        <path d="M1434.15 100.78L1405.24 236.28" stroke="hsl(228.5, 77.2%, 51.5%)" stroke-width="1.5"></path>
        <path d="M1434.15 100.78L1293.37 52.82" stroke="hsl(228.5, 77.2%, 51.5%)" stroke-width="1.5"></path>
        <path d="M1434.15 100.78L1588.19 246.22" stroke="hsl(228.5, 77.2%, 51.5%)" stroke-width="1.5"></path>
        <path d="M-42.79 517.25L-42.79 517.25" stroke="hsl(228.5, 77.2%, 51.5%)" stroke-width="1.5"></path>
        <path d="M-42.79 517.25L-90.67 700.79" stroke="hsl(228.5, 77.2%, 51.5%)" stroke-width="1.5"></path>
        <path d="M-42.79 517.25L72.65 669.29" stroke="hsl(228.5, 77.2%, 51.5%)" stroke-width="1.5"></path>
        <path d="M-90.67 700.79L-90.67 700.79" stroke="hsl(228.5, 77.2%, 51.5%)" stroke-width="1.5"></path>
        <path d="M249.04 490.46L249.04 490.46" stroke="hsl(228.5, 77.2%, 51.5%)" stroke-width="1.5"></path>
        <path d="M249.04 490.46L350.63 546.46" stroke="hsl(228.5, 77.2%, 51.5%)" stroke-width="1.5"></path>
        <path d="M249.04 490.46L245.62 649.43" stroke="hsl(228.5, 77.2%, 51.5%)" stroke-width="1.5"></path>
        <path d="M249.04 490.46L355.99 711.47" stroke="hsl(228.5, 77.2%, 51.5%)" stroke-width="1.5"></path>
        <path d="M249.04 490.46L72.65 669.29" stroke="hsl(228.5, 77.2%, 51.5%)" stroke-width="1.5"></path>
        <path d="M249.04 490.46L-42.79 517.25" stroke="hsl(228.5, 77.2%, 51.5%)" stroke-width="1.5"></path>
        <path d="M245.62 649.43L245.62 649.43" stroke="hsl(228.5, 77.2%, 51.5%)" stroke-width="1.5"></path>
        <path d="M245.62 649.43L355.99 711.47" stroke="hsl(228.5, 77.2%, 51.5%)" stroke-width="1.5"></path>
        <path d="M245.62 649.43L350.63 546.46" stroke="hsl(228.5, 77.2%, 51.5%)" stroke-width="1.5"></path>
        <path d="M245.62 649.43L72.65 669.29" stroke="hsl(228.5, 77.2%, 51.5%)" stroke-width="1.5"></path>
        <path d="M350.63 546.46L350.63 546.46" stroke="hsl(228.5, 77.2%, 51.5%)" stroke-width="1.5"></path>
        <path d="M350.63 546.46L355.99 711.47" stroke="hsl(228.5, 77.2%, 51.5%)" stroke-width="1.5"></path>
        <path d="M350.63 546.46L553.51 554.85" stroke="hsl(228.5, 77.2%, 51.5%)" stroke-width="1.5"></path>
        <path d="M355.99 711.47L355.99 711.47" stroke="hsl(228.5, 77.2%, 51.5%)" stroke-width="1.5"></path>
        <path d="M355.99 711.47L518.39 678.8" stroke="hsl(228.5, 77.2%, 51.5%)" stroke-width="1.5"></path>
        <path d="M355.99 711.47L553.51 554.85" stroke="hsl(228.5, 77.2%, 51.5%)" stroke-width="1.5"></path>
        <path d="M541.83 406.48L541.83 406.48" stroke="hsl(228.5, 77.2%, 51.5%)" stroke-width="1.5"></path>
        <path d="M541.83 406.48L553.51 554.85" stroke="hsl(228.5, 77.2%, 51.5%)" stroke-width="1.5"></path>
        <path d="M541.83 406.48L703.22 356.54" stroke="hsl(228.5, 77.2%, 51.5%)" stroke-width="1.5"></path>
        <path d="M541.83 406.48L708.19 501.07" stroke="hsl(228.5, 77.2%, 51.5%)" stroke-width="1.5"></path>
        <path d="M541.83 406.48L350.63 546.46" stroke="hsl(228.5, 77.2%, 51.5%)" stroke-width="1.5"></path>
        <path d="M518.39 678.8L518.39 678.8" stroke="hsl(228.5, 77.2%, 51.5%)" stroke-width="1.5"></path>
        <path d="M518.39 678.8L654.81 657.24" stroke="hsl(228.5, 77.2%, 51.5%)" stroke-width="1.5"></path>
        <path d="M518.39 678.8L350.63 546.46" stroke="hsl(228.5, 77.2%, 51.5%)" stroke-width="1.5"></path>
        <path d="M703.22 356.54L703.22 356.54" stroke="hsl(228.5, 77.2%, 51.5%)" stroke-width="1.5"></path>
        <path d="M703.22 356.54L708.19 501.07" stroke="hsl(228.5, 77.2%, 51.5%)" stroke-width="1.5"></path>
        <path d="M703.22 356.54L854.11 534.35" stroke="hsl(228.5, 77.2%, 51.5%)" stroke-width="1.5"></path>
        <path d="M708.19 501.07L708.19 501.07" stroke="hsl(228.5, 77.2%, 51.5%)" stroke-width="1.5"></path>
        <path d="M708.19 501.07L553.51 554.85" stroke="hsl(228.5, 77.2%, 51.5%)" stroke-width="1.5"></path>
        <path d="M708.19 501.07L654.81 657.24" stroke="hsl(228.5, 77.2%, 51.5%)" stroke-width="1.5"></path>
        <path d="M708.19 501.07L798.94 657.97   " stroke="hsl(228.5, 77.2%, 51.5%)" stroke-width="1.5"></path>
        <path d="M654.81 657.24L654.81 657.24" stroke="hsl(228.5, 77.2%, 51.5%)" stroke-width="1.5"></path>
        <path d="M654.81 657.24L553.51 554.85" stroke="hsl(228.5, 77.2%, 51.5%)" stroke-width="1.5"></path>
        <path d="M654.81 657.24L798.94 657.97" stroke="hsl(228.5, 77.2%, 51.5%)" stroke-width="1.5"></path>
        <path d="M654.81 657.24L854.11 534.35" stroke="hsl(228.5, 77.2%, 51.5%)" stroke-width="1.5"></path>
        <path d="M798.94 657.97L798.94 657.97" stroke="hsl(228.5, 77.2%, 51.5%)" stroke-width="1.5"></path>
        <path d="M798.94 657.97L987.8 710.32" stroke="hsl(228.5, 77.2%, 51.5%)" stroke-width="1.5"></path>
        <path d="M798.94 657.97L553.51 554.85" stroke="hsl(228.5, 77.2%, 51.5%)" stroke-width="1.5"></path>
        <path d="M798.94 657.97L1008.61 487.67" stroke="hsl(228.5, 77.2%, 51.5%)" stroke-width="1.5"></path>
        <path d="M1011.75 408.22L1011.75 408.22" stroke="hsl(228.5, 77.2%, 51.5%)" stroke-width="1.5"></path>
        <path d="M1011.75 408.22L1008.61 487.67" stroke="hsl(228.5, 77.2%, 51.5%)" stroke-width="1.5"></path>
        <path d="M1011.75 408.22L1138.98 401.44" stroke="hsl(228.5, 77.2%, 51.5%)" stroke-width="1.5"></path>
        <path d="M1011.75 408.22L1117.3 530.53" stroke="hsl(228.5, 77.2%, 51.5%)" stroke-width="1.5"></path>
        <path d="M1011.75 408.22L854.18 357.76" stroke="hsl(228.5, 77.2%, 51.5%)" stroke-width="1.5"></path>
        <path d="M1011.75 408.22L854.11 534.35" stroke="hsl(228.5, 77.2%, 51.5%)" stroke-width="1.5"></path>
        <path d="M1008.61 487.67L1008.61 487.67" stroke="hsl(228.5, 77.2%, 51.5%)" stroke-width="1.5"></path>
        <path d="M1008.61 487.67L1117.3 530.53" stroke="hsl(228.5, 77.2%, 51.5%)" stroke-width="1.5"></path>
        <path d="M1008.61 487.67L1138.98 401.44" stroke="hsl(228.5, 77.2%, 51.5%)" stroke-width="1.5"></path>
        <path d="M1008.61 487.67L854.11 534.35" stroke="hsl(228.5, 77.2%, 51.5%)" stroke-width="1.5"></path>
        <path d="M1008.61 487.67L854.18 357.76" stroke="hsl(228.5, 77.2%, 51.5%)" stroke-width="1.5"></path>
        <path d="M987.8 710.32L987.8 710.32" stroke="hsl(228.5, 77.2%, 51.5%)" stroke-width="1.5"></path>
        <path d="M987.8 710.32L854.11 534.35" stroke="hsl(228.5, 77.2%, 51.5%)" stroke-width="1.5"></path>
        <path d="M987.8 710.32L1117.3 530.53" stroke="hsl(228.5, 77.2%, 51.5%)" stroke-width="1.5"></path>
        <path d="M987.8 710.32L1008.61 487.67" stroke="hsl(228.5, 77.2%, 51.5%)" stroke-width="1.5"></path>
        <path d="M987.8 710.32L1264.33 654.9" stroke="hsl(228.5, 77.2%, 51.5%)" stroke-width="1.5"></path>
        <path d="M1147.2 210.85L1147.2 210.85" stroke="hsl(228.5, 77.2%, 51.5%)" stroke-width="1.5"></path>
        <path d="M1147.2 210.85L1240.15 219.39" stroke="hsl(228.5, 77.2%, 51.5%)" stroke-width="1.5"></path>
        <path d="M1147.2 210.85L1138.98 401.44" stroke="hsl(228.5, 77.2%, 51.5%)" stroke-width="1.5"></path>
        <path d="M1147.2 210.85L1307.64 343.81" stroke="hsl(228.5, 77.2%, 51.5%)" stroke-width="1.5"></path>
        <path d="M1147.2 210.85L1293.37 52.82" stroke="hsl(228.5, 77.2%, 51.5%)" stroke-width="1.5"></path>
        <path d="M1138.98 401.44L1138.98 401.44" stroke="hsl(228.5, 77.2%, 51.5%)" stroke-width="1.5"></path>
        <path d="M1138.98 401.44L1117.3 530.53" stroke="hsl(228.5, 77.2%, 51.5%)" stroke-width="1.5"></path>
        <path d="M1138.98 401.44L1307.64 343.81" stroke="hsl(228.5, 77.2%, 51.5%)" stroke-width="1.5"></path>
        <path d="M1117.3 530.53L1117.3 530.53" stroke="hsl(228.5, 77.2%, 51.5%)" stroke-width="1.5"></path>
        <path d="M1117.3 530.53L1264.33 654.9" stroke="hsl(228.5, 77.2%, 51.5%)" stroke-width="1.5"></path>
        <path d="M1293.37 52.82L1293.37 52.82" stroke="hsl(228.5, 77.2%, 51.5%)" stroke-width="1.5"></path>
        <path d="M1293.37 52.82L1240.15 219.39" stroke="hsl(228.5, 77.2%, 51.5%)" stroke-width="1.5"></path>
        <path d="M1293.37 52.82L1405.24 236.28" stroke="hsl(228.5, 77.2%, 51.5%)" stroke-width="1.5"></path>
        <path d="M1240.15 219.39L1240.15 219.39" stroke="hsl(228.5, 77.2%, 51.5%)" stroke-width="1.5"></path>
        <path d="M1240.15 219.39L1307.64 343.81" stroke="hsl(228.5, 77.2%, 51.5%)" stroke-width="1.5"></path>
        <path d="M1240.15 219.39L1405.24 236.28" stroke="hsl(228.5, 77.2%, 51.5%)" stroke-width="1.5"></path>
        <path d="M1240.15 219.39L1138.98 401.44" stroke="hsl(228.5, 77.2%, 51.5%)" stroke-width="1.5"></path>
        <path d="M1240.15 219.39L1434.15 100.78" stroke="hsl(228.5, 77.2%, 51.5%)" stroke-width="1.5"></path>
        <path d="M1307.64 343.81L1307.64 343.81" stroke="hsl(228.5, 77.2%, 51.5%)" stroke-width="1.5"></path>
        <path d="M1307.64 343.81L1431.88 347.98" stroke="hsl(228.5, 77.2%, 51.5%)" stroke-width="1.5"></path>
        <path d="M1307.64 343.81L1309.35 488.77" stroke="hsl(228.5, 77.2%, 51.5%)" stroke-width="1.5"></path>
        <path d="M1309.35 488.77L1309.35 488.77" stroke="hsl(228.5, 77.2%, 51.5%)" stroke-width="1.5"></path>
        <path d="M1309.35 488.77L1449.26 512.05" stroke="hsl(228.5, 77.2%, 51.5%)" stroke-width="1.5"></path>
        <path d="M1309.35 488.77L1264.33 654.9" stroke="hsl(228.5, 77.2%, 51.5%)" stroke-width="1.5"></path>
        <path d="M1264.33 654.9L1264.33 654.9" stroke="hsl(228.5, 77.2%, 51.5%)" stroke-width="1.5"></path>
        <path d="M1264.33 654.9L1454.24 651.69" stroke="hsl(228.5, 77.2%, 51.5%)" stroke-width="1.5"></path>
        <path d="M1405.24 236.28L1405.24 236.28" stroke="hsl(228.5, 77.2%, 51.5%)" stroke-width="1.5"></path>
        <path d="M1405.24 236.28L1431.88 347.98" stroke="hsl(228.5, 77.2%, 51.5%)" stroke-width="1.5"></path>
        <path d="M1405.24 236.28L1307.64 343.81" stroke="hsl(228.5, 77.2%, 51.5%)" stroke-width="1.5"></path>
        <path d="M1431.88 347.98L1431.88 347.98" stroke="hsl(228.5, 77.2%, 51.5%)" stroke-width="1.5"></path>
        <path d="M1431.88 347.98L1449.26 512.05" stroke="hsl(228.5, 77.2%, 51.5%)" stroke-width="1.5"></path>
        <path d="M1431.88 347.98L1610.73 355.21" stroke="hsl(228.5, 77.2%, 51.5%)" stroke-width="1.5"></path>
        <path d="M1449.26 512.05L1449.26 512.05" stroke="hsl(228.5, 77.2%, 51.5%)" stroke-width="1.5"></path>
        <path d="M1449.26 512.05L1587.4 502.05" stroke="hsl(228.5, 77.2%, 51.5%)" stroke-width="1.5"></path>
        <path d="M1449.26 512.05L1454.24 651.69" stroke="hsl(228.5, 77.2%, 51.5%)" stroke-width="1.5"></path>
        <path d="M1454.24 651.69L1454.24 651.69" stroke="hsl(228.5, 77.2%, 51.5%)" stroke-width="1.5"></path>
        <path d="M1454.24 651.69L1587.4 502.05" stroke="hsl(228.5, 77.2%, 51.5%)" stroke-width="1.5"></path>
        <path d="M1454.24 651.69L1309.35 488.77" stroke="hsl(228.5, 77.2%, 51.5%)" stroke-width="1.5"></path>
        <path d="M1454.24 651.69L1431.88 347.98" stroke="hsl(228.5, 77.2%, 51.5%)" stroke-width="1.5"></path>
        <path d="M1586.82 -65.13L1586.82 -65.13" stroke="hsl(228.5, 77.2%, 51.5%)" stroke-width="1.5"></path>
        <path d="M1586.82 -65.13L1540.05 94.56" stroke="hsl(228.5, 77.2%, 51.5%)" stroke-width="1.5"></path>
        <path d="M1586.82 -65.13L1434.15 100.78" stroke="hsl(228.5, 77.2%, 51.5%)" stroke-width="1.5"></path>
        <path d="M1586.82 -65.13L1588.19 246.22" stroke="hsl(228.5, 77.2%, 51.5%)" stroke-width="1.5"></path>
        <path d="M1540.05 94.56L1540.05 94.56" stroke="hsl(228.5, 77.2%, 51.5%)" stroke-width="1.5"></path>
        <path d="M1540.05 94.56L1588.19 246.22" stroke="hsl(228.5, 77.2%, 51.5%)" stroke-width="1.5"></path>
        <path d="M1588.19 246.22L1588.19 246.22" stroke="hsl(228.5, 77.2%, 51.5%)" stroke-width="1.5"></path>
        <path d="M1588.19 246.22L1610.73 355.21" stroke="hsl(228.5, 77.2%, 51.5%)" stroke-width="1.5"></path>
        <path d="M1610.73 355.21L1610.73 355.21" stroke="hsl(228.5, 77.2%, 51.5%)" stroke-width="1.5"></path>
        <path d="M1610.73 355.21L1587.4 502.05" stroke="hsl(228.5, 77.2%, 51.5%)" stroke-width="1.5"></path>
        <path d="M1610.73 355.21L1449.26 512.05" stroke="hsl(228.5, 77.2%, 51.5%)" stroke-width="1.5"></path>
        <path d="M1587.4 502.05L1587.4 502.05" stroke="hsl(228.5, 77.2%, 51.5%)" stroke-width="1.5"></path>
        <path d="M1587.4 502.05L1431.88 347.98" stroke="hsl(228.5, 77.2%, 51.5%)" stroke-width="1.5"></path>
        <path d="M1587.4 502.05L1588.19 246.22" stroke="hsl(228.5, 77.2%, 51.5%)" stroke-width="1.5"></path>
        <circle r="25" cx="62.21" cy="540.92" fill="url(#SvgjsRadialGradient1001)"></circle>
        <circle r="25" cx="72.65" cy="669.29" fill="url(#SvgjsRadialGradient1001)"></circle>
        <circle r="25" cx="553.51" cy="554.85" fill="url(#SvgjsRadialGradient1001)"></circle>
        <circle r="25" cx="854.18" cy="357.76" fill="url(#SvgjsRadialGradient1001)"></circle>
        <circle r="25" cx="854.11" cy="534.35" fill="url(#SvgjsRadialGradient1001)"></circle>
        <circle r="25" cx="1106.27" cy="679.37" fill="url(#SvgjsRadialGradient1001)"></circle>
        <circle r="25" cx="1248.73" cy="-89.3" fill="url(#SvgjsRadialGradient1001)"></circle>
        <circle r="25" cx="1434.15" cy="100.78" fill="url(#SvgjsRadialGradient1001)"></circle>
        <circle r="5" cx="-42.79" cy="517.25" fill="#8b9ad9"></circle>
        <circle r="5" cx="-90.67" cy="700.79" fill="#8b9ad9"></circle>
        <circle r="5" cx="249.04" cy="490.46" fill="#8b9ad9"></circle>
        <circle r="5" cx="245.62" cy="649.43" fill="#8b9ad9"></circle>
        <circle r="5" cx="350.63" cy="546.46" fill="#8b9ad9"></circle>
        <circle r="5" cx="355.99" cy="711.47" fill="#8b9ad9"></circle>
        <circle r="5" cx="541.83" cy="406.48" fill="#8b9ad9"></circle>
        <circle r="5" cx="518.39" cy="678.8" fill="#8b9ad9"></circle>
        <circle r="5" cx="703.22" cy="356.54" fill="#8b9ad9"></circle>
        <circle r="5" cx="708.19" cy="501.07" fill="#8b9ad9"></circle>
        <circle r="5" cx="654.81" cy="657.24" fill="#8b9ad9"></circle>
        <circle r="5" cx="798.94" cy="657.97" fill="#8b9ad9"></circle>
        <circle r="5" cx="1011.75" cy="408.22" fill="#8b9ad9"></circle>
        <circle r="5" cx="1008.61" cy="487.67" fill="#8b9ad9"></circle>
        <circle r="5" cx="987.8" cy="710.32" fill="#8b9ad9"></circle>
        <circle r="5" cx="1147.2" cy="210.85" fill="#8b9ad9"></circle>
        <circle r="5" cx="1138.98" cy="401.44" fill="#8b9ad9"></circle>
        <circle r="5" cx="1117.3" cy="530.53" fill="#8b9ad9"></circle>
        <circle r="5" cx="1293.37" cy="52.82" fill="#8b9ad9"></circle>
        <circle r="5" cx="1240.15" cy="219.39" fill="#8b9ad9"></circle>
        <circle r="5" cx="1307.64" cy="343.81" fill="#8b9ad9"></circle>
        <circle r="5" cx="1309.35" cy="488.77" fill="#8b9ad9"></circle>
        <circle r="5" cx="1264.33" cy="654.9" fill="#8b9ad9"></circle>
        <circle r="5" cx="1405.24" cy="236.28" fill="#8b9ad9"></circle>
        <circle r="5" cx="1431.88" cy="347.98" fill="#8b9ad9"></circle>
        <circle r="5" cx="1449.26" cy="512.05" fill="#8b9ad9"></circle>
        <circle r="5" cx="1454.24" cy="651.69" fill="#8b9ad9"></circle>
        <circle r="5" cx="1586.82" cy="-65.13" fill="#8b9ad9"></circle>
        <circle r="5" cx="1540.05" cy="94.56" fill="#8b9ad9"></circle>
        <circle r="5" cx="1588.19" cy="246.22" fill="#8b9ad9"></circle>
        <circle r="5" cx="1610.73" cy="355.21" fill="#8b9ad9"></circle>
        <circle r="5" cx="1587.4" cy="502.05" fill="#8b9ad9"></circle>
    </g>
    <defs>
        <mask id="SvgjsMask1000">
            <rect width="1440" height="560" fill="#ffffff"></rect>
        </mask>
        <radialGradient id="SvgjsRadialGradient1001">
            <stop stop-color="#ffffff" offset="0.1"></stop>
            <stop stop-color="#1735b3" offset="0.2"></stop>
            <stop stop-color="rgba(23, 53, 179, 0)" offset="1"></stop>
        </radialGradient>
    </defs>
</svg>