<svg xmlns="http://www.w3.org/2000/svg" version="1.1" xmlns:xlink="http://www.w3.org/1999/xlink" xmlns:svgjs="http://svgjs.com/svgjs" width="1440" height="560" preserveAspectRatio="none" viewBox="0 0 1440 560">
    <g mask="url(&quot;#SvgjsMask1021&quot;)" fill="none">
        <rect width="1440" height="560" x="0" y="0" fill="#0e2a47"></rect>
        <path d="M0 -75L64.95 -37.5L64.95 37.5L0 75L-64.95 37.5L-64.95 -37.5zM64.95 37.5L129.91 75L129.91 150L64.95 187.5L0 150L0 75zM0 150L64.95 187.5L64.95 262.5L0 300L-64.95 262.5L-64.95 187.5zM64.95 262.5L129.91 300L129.91 375L64.95 412.5L0 375L0 300zM0 375L64.95 412.5L64.95 487.5L0 525L-64.95 487.5L-64.95 412.5zM64.95 487.5L129.91 525L129.91 600L64.95 637.5L0 600L0 525zM129.91 -75L194.86 -37.5L194.86 37.5L129.91 75L64.95 37.5L64.95 -37.5zM194.86 37.5L259.81 75L259.81 150L194.86 187.5L129.91 150L129.91 75zM129.91 150L194.86 187.5L194.86 262.5L129.91 300L64.95 262.5L64.95 187.5zM194.86 262.5L259.81 300L259.81 375L194.86 412.5L129.91 375L129.91 300zM129.91 375L194.86 412.5L194.86 487.5L129.91 525L64.95 487.5L64.95 412.5zM194.86 487.5L259.81 525L259.81 600L194.86 637.5L129.91 600L129.91 525zM259.81 -75L324.77 -37.5L324.77 37.5L259.81 75L194.86 37.5L194.86 -37.5zM324.77 37.5L389.72 75L389.72 150L324.77 187.5L259.81 150L259.81 75zM259.81 150L324.77 187.5L324.77 262.5L259.81 300L194.86 262.5L194.86 187.5zM324.77 262.5L389.72 300L389.72 375L324.77 412.5L259.81 375L259.81 300zM259.81 375L324.77 412.5L324.77 487.5L259.81 525L194.86 487.5L194.86 412.5zM324.77 487.5L389.72 525L389.72 600L324.77 637.5L259.81 600L259.81 525zM389.72 -75L454.68 -37.5L454.68 37.5L389.72 75L324.77 37.5L324.77 -37.5zM454.68 37.5L519.63 75L519.63 150L454.68 187.5L389.72 150L389.72 75zM389.72 150L454.68 187.5L454.68 262.5L389.72 300L324.77 262.5L324.77 187.5zM454.68 262.5L519.63 300L519.63 375L454.68 412.5L389.72 375L389.72 300zM389.72 375L454.68 412.5L454.68 487.5L389.72 525L324.77 487.5L324.77 412.5zM454.68 487.5L519.63 525L519.63 600L454.68 637.5L389.72 600L389.72 525zM519.63 -75L584.58 -37.5L584.58 37.5L519.63 75L454.68 37.5L454.68 -37.5zM584.58 37.5L649.54 75L649.54 150L584.58 187.5L519.63 150L519.63 75zM519.63 150L584.58 187.5L584.58 262.5L519.63 300L454.68 262.5L454.68 187.5zM584.58 262.5L649.54 300L649.54 375L584.58 412.5L519.63 375L519.63 300zM519.63 375L584.58 412.5L584.58 487.5L519.63 525L454.68 487.5L454.68 412.5zM584.58 487.5L649.54 525L649.54 600L584.58 637.5L519.63 600L519.63 525zM649.54 -75L714.49 -37.5L714.49 37.5L649.54 75L584.58 37.5L584.58 -37.5zM714.49 37.5L779.45 75L779.45 150L714.49 187.5L649.54 150L649.54 75zM649.54 150L714.49 187.5L714.49 262.5L649.54 300L584.58 262.5L584.58 187.5zM714.49 262.5L779.45 300L779.45 375L714.49 412.5L649.54 375L649.54 300zM649.54 375L714.49 412.5L714.49 487.5L649.54 525L584.58 487.5L584.58 412.5zM714.49 487.5L779.45 525L779.45 600L714.49 637.5L649.54 600L649.54 525zM779.44 -75L844.4 -37.5L844.4 37.5L779.44 75L714.49 37.5L714.49 -37.5zM844.4 37.5L909.35 75L909.35 150L844.4 187.5L779.44 150L779.44 75zM779.44 150L844.4 187.5L844.4 262.5L779.44 300L714.49 262.5L714.49 187.5zM844.4 262.5L909.35 300L909.35 375L844.4 412.5L779.44 375L779.44 300zM779.44 375L844.4 412.5L844.4 487.5L779.44 525L714.49 487.5L714.49 412.5zM844.4 487.5L909.35 525L909.35 600L844.4 637.5L779.44 600L779.44 525zM909.35 -75L974.31 -37.5L974.31 37.5L909.35 75L844.4 37.5L844.4 -37.5zM974.31 37.5L1039.26 75L1039.26 150L974.31 187.5L909.35 150L909.35 75zM909.35 150L974.31 187.5L974.31 262.5L909.35 300L844.4 262.5L844.4 187.5zM974.31 262.5L1039.26 300L1039.26 375L974.31 412.5L909.35 375L909.35 300zM909.35 375L974.31 412.5L974.31 487.5L909.35 525L844.4 487.5L844.4 412.5zM974.31 487.5L1039.26 525L1039.26 600L974.31 637.5L909.35 600L909.35 525zM1039.26 -75L1104.21 -37.5L1104.21 37.5L1039.26 75L974.31 37.5L974.31 -37.5zM1104.21 37.5L1169.17 75L1169.17 150L1104.21 187.5L1039.26 150L1039.26 75zM1039.26 150L1104.21 187.5L1104.21 262.5L1039.26 300L974.31 262.5L974.31 187.5zM1104.21 262.5L1169.17 300L1169.17 375L1104.21 412.5L1039.26 375L1039.26 300zM1039.26 375L1104.21 412.5L1104.21 487.5L1039.26 525L974.31 487.5L974.31 412.5zM1104.21 487.5L1169.17 525L1169.17 600L1104.21 637.5L1039.26 600L1039.26 525zM1169.17 -75L1234.12 -37.5L1234.12 37.5L1169.17 75L1104.21 37.5L1104.21 -37.5zM1234.12 37.5L1299.07 75L1299.07 150L1234.12 187.5L1169.17 150L1169.17 75zM1169.17 150L1234.12 187.5L1234.12 262.5L1169.17 300L1104.21 262.5L1104.21 187.5zM1234.12 262.5L1299.07 300L1299.07 375L1234.12 412.5L1169.17 375L1169.17 300zM1169.17 375L1234.12 412.5L1234.12 487.5L1169.17 525L1104.21 487.5L1104.21 412.5zM1234.12 487.5L1299.07 525L1299.07 600L1234.12 637.5L1169.17 600L1169.17 525zM1299.08 -75L1364.03 -37.5L1364.03 37.5L1299.08 75L1234.12 37.5L1234.12 -37.5zM1364.03 37.5L1428.98 75L1428.98 150L1364.03 187.5L1299.08 150L1299.08 75zM1299.08 150L1364.03 187.5L1364.03 262.5L1299.08 300L1234.12 262.5L1234.12 187.5zM1364.03 262.5L1428.98 300L1428.98 375L1364.03 412.5L1299.08 375L1299.08 300zM1299.08 375L1364.03 412.5L1364.03 487.5L1299.08 525L1234.12 487.5L1234.12 412.5zM1364.03 487.5L1428.98 525L1428.98 600L1364.03 637.5L1299.08 600L1299.08 525zM1428.98 -75L1493.94 -37.5L1493.94 37.5L1428.98 75L1364.03 37.5L1364.03 -37.5zM1493.94 37.5L1558.89 75L1558.89 150L1493.94 187.5L1428.98 150L1428.98 75zM1428.98 150L1493.94 187.5L1493.94 262.5L1428.98 300L1364.03 262.5L1364.03 187.5zM1493.94 262.5L1558.89 300L1558.89 375L1493.94 412.5L1428.98 375L1428.98 300zM1428.98 375L1493.94 412.5L1493.94 487.5L1428.98 525L1364.03 487.5L1364.03 412.5zM1493.94 487.5L1558.89 525L1558.89 600L1493.94 637.5L1428.98 600L1428.98 525z" stroke="rgba(3, 48, 93, 1)" stroke-width="2"></path>
        <path d="M-7.5 -75 a7.5 7.5 0 1 0 15 0 a7.5 7.5 0 1 0 -15 0zM57.45 -37.5 a7.5 7.5 0 1 0 15 0 a7.5 7.5 0 1 0 -15 0zM57.45 37.5 a7.5 7.5 0 1 0 15 0 a7.5 7.5 0 1 0 -15 0zM-7.5 75 a7.5 7.5 0 1 0 15 0 a7.5 7.5 0 1 0 -15 0zM-72.45 37.5 a7.5 7.5 0 1 0 15 0 a7.5 7.5 0 1 0 -15 0zM-72.45 -37.5 a7.5 7.5 0 1 0 15 0 a7.5 7.5 0 1 0 -15 0zM122.41 75 a7.5 7.5 0 1 0 15 0 a7.5 7.5 0 1 0 -15 0zM122.41 150 a7.5 7.5 0 1 0 15 0 a7.5 7.5 0 1 0 -15 0zM57.45 187.5 a7.5 7.5 0 1 0 15 0 a7.5 7.5 0 1 0 -15 0zM-7.5 150 a7.5 7.5 0 1 0 15 0 a7.5 7.5 0 1 0 -15 0zM57.45 262.5 a7.5 7.5 0 1 0 15 0 a7.5 7.5 0 1 0 -15 0zM-7.5 300 a7.5 7.5 0 1 0 15 0 a7.5 7.5 0 1 0 -15 0zM-72.45 262.5 a7.5 7.5 0 1 0 15 0 a7.5 7.5 0 1 0 -15 0zM-72.45 187.5 a7.5 7.5 0 1 0 15 0 a7.5 7.5 0 1 0 -15 0zM122.41 300 a7.5 7.5 0 1 0 15 0 a7.5 7.5 0 1 0 -15 0zM122.41 375 a7.5 7.5 0 1 0 15 0 a7.5 7.5 0 1 0 -15 0zM57.45 412.5 a7.5 7.5 0 1 0 15 0 a7.5 7.5 0 1 0 -15 0zM-7.5 375 a7.5 7.5 0 1 0 15 0 a7.5 7.5 0 1 0 -15 0zM57.45 487.5 a7.5 7.5 0 1 0 15 0 a7.5 7.5 0 1 0 -15 0zM-7.5 525 a7.5 7.5 0 1 0 15 0 a7.5 7.5 0 1 0 -15 0zM-72.45 487.5 a7.5 7.5 0 1 0 15 0 a7.5 7.5 0 1 0 -15 0zM-72.45 412.5 a7.5 7.5 0 1 0 15 0 a7.5 7.5 0 1 0 -15 0zM122.41 525 a7.5 7.5 0 1 0 15 0 a7.5 7.5 0 1 0 -15 0zM122.41 600 a7.5 7.5 0 1 0 15 0 a7.5 7.5 0 1 0 -15 0zM57.45 637.5 a7.5 7.5 0 1 0 15 0 a7.5 7.5 0 1 0 -15 0zM-7.5 600 a7.5 7.5 0 1 0 15 0 a7.5 7.5 0 1 0 -15 0zM122.41 -75 a7.5 7.5 0 1 0 15 0 a7.5 7.5 0 1 0 -15 0zM187.36 -37.5 a7.5 7.5 0 1 0 15 0 a7.5 7.5 0 1 0 -15 0zM187.36 37.5 a7.5 7.5 0 1 0 15 0 a7.5 7.5 0 1 0 -15 0zM252.31 75 a7.5 7.5 0 1 0 15 0 a7.5 7.5 0 1 0 -15 0zM252.31 150 a7.5 7.5 0 1 0 15 0 a7.5 7.5 0 1 0 -15 0zM187.36 187.5 a7.5 7.5 0 1 0 15 0 a7.5 7.5 0 1 0 -15 0zM187.36 262.5 a7.5 7.5 0 1 0 15 0 a7.5 7.5 0 1 0 -15 0zM252.31 300 a7.5 7.5 0 1 0 15 0 a7.5 7.5 0 1 0 -15 0zM252.31 375 a7.5 7.5 0 1 0 15 0 a7.5 7.5 0 1 0 -15 0zM187.36 412.5 a7.5 7.5 0 1 0 15 0 a7.5 7.5 0 1 0 -15 0zM187.36 487.5 a7.5 7.5 0 1 0 15 0 a7.5 7.5 0 1 0 -15 0zM252.31 525 a7.5 7.5 0 1 0 15 0 a7.5 7.5 0 1 0 -15 0zM252.31 600 a7.5 7.5 0 1 0 15 0 a7.5 7.5 0 1 0 -15 0zM187.36 637.5 a7.5 7.5 0 1 0 15 0 a7.5 7.5 0 1 0 -15 0zM252.31 -75 a7.5 7.5 0 1 0 15 0 a7.5 7.5 0 1 0 -15 0zM317.27 -37.5 a7.5 7.5 0 1 0 15 0 a7.5 7.5 0 1 0 -15 0zM317.27 37.5 a7.5 7.5 0 1 0 15 0 a7.5 7.5 0 1 0 -15 0zM382.22 75 a7.5 7.5 0 1 0 15 0 a7.5 7.5 0 1 0 -15 0zM382.22 150 a7.5 7.5 0 1 0 15 0 a7.5 7.5 0 1 0 -15 0zM317.27 187.5 a7.5 7.5 0 1 0 15 0 a7.5 7.5 0 1 0 -15 0zM317.27 262.5 a7.5 7.5 0 1 0 15 0 a7.5 7.5 0 1 0 -15 0zM382.22 300 a7.5 7.5 0 1 0 15 0 a7.5 7.5 0 1 0 -15 0zM382.22 375 a7.5 7.5 0 1 0 15 0 a7.5 7.5 0 1 0 -15 0zM317.27 412.5 a7.5 7.5 0 1 0 15 0 a7.5 7.5 0 1 0 -15 0zM317.27 487.5 a7.5 7.5 0 1 0 15 0 a7.5 7.5 0 1 0 -15 0zM382.22 525 a7.5 7.5 0 1 0 15 0 a7.5 7.5 0 1 0 -15 0zM382.22 600 a7.5 7.5 0 1 0 15 0 a7.5 7.5 0 1 0 -15 0zM317.27 637.5 a7.5 7.5 0 1 0 15 0 a7.5 7.5 0 1 0 -15 0zM382.22 -75 a7.5 7.5 0 1 0 15 0 a7.5 7.5 0 1 0 -15 0zM447.18 -37.5 a7.5 7.5 0 1 0 15 0 a7.5 7.5 0 1 0 -15 0zM447.18 37.5 a7.5 7.5 0 1 0 15 0 a7.5 7.5 0 1 0 -15 0zM512.13 75 a7.5 7.5 0 1 0 15 0 a7.5 7.5 0 1 0 -15 0zM512.13 150 a7.5 7.5 0 1 0 15 0 a7.5 7.5 0 1 0 -15 0zM447.18 187.5 a7.5 7.5 0 1 0 15 0 a7.5 7.5 0 1 0 -15 0zM447.18 262.5 a7.5 7.5 0 1 0 15 0 a7.5 7.5 0 1 0 -15 0zM512.13 300 a7.5 7.5 0 1 0 15 0 a7.5 7.5 0 1 0 -15 0zM512.13 375 a7.5 7.5 0 1 0 15 0 a7.5 7.5 0 1 0 -15 0zM447.18 412.5 a7.5 7.5 0 1 0 15 0 a7.5 7.5 0 1 0 -15 0zM447.18 487.5 a7.5 7.5 0 1 0 15 0 a7.5 7.5 0 1 0 -15 0zM512.13 525 a7.5 7.5 0 1 0 15 0 a7.5 7.5 0 1 0 -15 0zM512.13 600 a7.5 7.5 0 1 0 15 0 a7.5 7.5 0 1 0 -15 0zM447.18 637.5 a7.5 7.5 0 1 0 15 0 a7.5 7.5 0 1 0 -15 0zM512.13 -75 a7.5 7.5 0 1 0 15 0 a7.5 7.5 0 1 0 -15 0zM577.08 -37.5 a7.5 7.5 0 1 0 15 0 a7.5 7.5 0 1 0 -15 0zM577.08 37.5 a7.5 7.5 0 1 0 15 0 a7.5 7.5 0 1 0 -15 0zM642.04 75 a7.5 7.5 0 1 0 15 0 a7.5 7.5 0 1 0 -15 0zM642.04 150 a7.5 7.5 0 1 0 15 0 a7.5 7.5 0 1 0 -15 0zM577.08 187.5 a7.5 7.5 0 1 0 15 0 a7.5 7.5 0 1 0 -15 0zM577.08 262.5 a7.5 7.5 0 1 0 15 0 a7.5 7.5 0 1 0 -15 0zM642.04 300 a7.5 7.5 0 1 0 15 0 a7.5 7.5 0 1 0 -15 0zM642.04 375 a7.5 7.5 0 1 0 15 0 a7.5 7.5 0 1 0 -15 0zM577.08 412.5 a7.5 7.5 0 1 0 15 0 a7.5 7.5 0 1 0 -15 0zM577.08 487.5 a7.5 7.5 0 1 0 15 0 a7.5 7.5 0 1 0 -15 0zM642.04 525 a7.5 7.5 0 1 0 15 0 a7.5 7.5 0 1 0 -15 0zM642.04 600 a7.5 7.5 0 1 0 15 0 a7.5 7.5 0 1 0 -15 0zM577.08 637.5 a7.5 7.5 0 1 0 15 0 a7.5 7.5 0 1 0 -15 0zM642.04 -75 a7.5 7.5 0 1 0 15 0 a7.5 7.5 0 1 0 -15 0zM706.99 -37.5 a7.5 7.5 0 1 0 15 0 a7.5 7.5 0 1 0 -15 0zM706.99 37.5 a7.5 7.5 0 1 0 15 0 a7.5 7.5 0 1 0 -15 0zM771.95 75 a7.5 7.5 0 1 0 15 0 a7.5 7.5 0 1 0 -15 0zM771.95 150 a7.5 7.5 0 1 0 15 0 a7.5 7.5 0 1 0 -15 0zM706.99 187.5 a7.5 7.5 0 1 0 15 0 a7.5 7.5 0 1 0 -15 0zM706.99 262.5 a7.5 7.5 0 1 0 15 0 a7.5 7.5 0 1 0 -15 0zM771.95 300 a7.5 7.5 0 1 0 15 0 a7.5 7.5 0 1 0 -15 0zM771.95 375 a7.5 7.5 0 1 0 15 0 a7.5 7.5 0 1 0 -15 0zM706.99 412.5 a7.5 7.5 0 1 0 15 0 a7.5 7.5 0 1 0 -15 0zM706.99 487.5 a7.5 7.5 0 1 0 15 0 a7.5 7.5 0 1 0 -15 0zM771.95 525 a7.5 7.5 0 1 0 15 0 a7.5 7.5 0 1 0 -15 0zM771.95 600 a7.5 7.5 0 1 0 15 0 a7.5 7.5 0 1 0 -15 0zM706.99 637.5 a7.5 7.5 0 1 0 15 0 a7.5 7.5 0 1 0 -15 0zM771.94 -75 a7.5 7.5 0 1 0 15 0 a7.5 7.5 0 1 0 -15 0zM836.9 -37.5 a7.5 7.5 0 1 0 15 0 a7.5 7.5 0 1 0 -15 0zM836.9 37.5 a7.5 7.5 0 1 0 15 0 a7.5 7.5 0 1 0 -15 0zM771.94 75 a7.5 7.5 0 1 0 15 0 a7.5 7.5 0 1 0 -15 0zM901.85 75 a7.5 7.5 0 1 0 15 0 a7.5 7.5 0 1 0 -15 0zM901.85 150 a7.5 7.5 0 1 0 15 0 a7.5 7.5 0 1 0 -15 0zM836.9 187.5 a7.5 7.5 0 1 0 15 0 a7.5 7.5 0 1 0 -15 0zM771.94 150 a7.5 7.5 0 1 0 15 0 a7.5 7.5 0 1 0 -15 0zM836.9 262.5 a7.5 7.5 0 1 0 15 0 a7.5 7.5 0 1 0 -15 0zM771.94 300 a7.5 7.5 0 1 0 15 0 a7.5 7.5 0 1 0 -15 0zM901.85 300 a7.5 7.5 0 1 0 15 0 a7.5 7.5 0 1 0 -15 0zM901.85 375 a7.5 7.5 0 1 0 15 0 a7.5 7.5 0 1 0 -15 0zM836.9 412.5 a7.5 7.5 0 1 0 15 0 a7.5 7.5 0 1 0 -15 0zM771.94 375 a7.5 7.5 0 1 0 15 0 a7.5 7.5 0 1 0 -15 0zM836.9 487.5 a7.5 7.5 0 1 0 15 0 a7.5 7.5 0 1 0 -15 0zM771.94 525 a7.5 7.5 0 1 0 15 0 a7.5 7.5 0 1 0 -15 0zM901.85 525 a7.5 7.5 0 1 0 15 0 a7.5 7.5 0 1 0 -15 0zM901.85 600 a7.5 7.5 0 1 0 15 0 a7.5 7.5 0 1 0 -15 0zM836.9 637.5 a7.5 7.5 0 1 0 15 0 a7.5 7.5 0 1 0 -15 0zM771.94 600 a7.5 7.5 0 1 0 15 0 a7.5 7.5 0 1 0 -15 0zM901.85 -75 a7.5 7.5 0 1 0 15 0 a7.5 7.5 0 1 0 -15 0zM966.81 -37.5 a7.5 7.5 0 1 0 15 0 a7.5 7.5 0 1 0 -15 0zM966.81 37.5 a7.5 7.5 0 1 0 15 0 a7.5 7.5 0 1 0 -15 0zM1031.76 75 a7.5 7.5 0 1 0 15 0 a7.5 7.5 0 1 0 -15 0zM1031.76 150 a7.5 7.5 0 1 0 15 0 a7.5 7.5 0 1 0 -15 0zM966.81 187.5 a7.5 7.5 0 1 0 15 0 a7.5 7.5 0 1 0 -15 0zM966.81 262.5 a7.5 7.5 0 1 0 15 0 a7.5 7.5 0 1 0 -15 0zM1031.76 300 a7.5 7.5 0 1 0 15 0 a7.5 7.5 0 1 0 -15 0zM1031.76 375 a7.5 7.5 0 1 0 15 0 a7.5 7.5 0 1 0 -15 0zM966.81 412.5 a7.5 7.5 0 1 0 15 0 a7.5 7.5 0 1 0 -15 0zM966.81 487.5 a7.5 7.5 0 1 0 15 0 a7.5 7.5 0 1 0 -15 0zM1031.76 525 a7.5 7.5 0 1 0 15 0 a7.5 7.5 0 1 0 -15 0zM1031.76 600 a7.5 7.5 0 1 0 15 0 a7.5 7.5 0 1 0 -15 0zM966.81 637.5 a7.5 7.5 0 1 0 15 0 a7.5 7.5 0 1 0 -15 0zM1031.76 -75 a7.5 7.5 0 1 0 15 0 a7.5 7.5 0 1 0 -15 0zM1096.71 -37.5 a7.5 7.5 0 1 0 15 0 a7.5 7.5 0 1 0 -15 0zM1096.71 37.5 a7.5 7.5 0 1 0 15 0 a7.5 7.5 0 1 0 -15 0zM1161.67 75 a7.5 7.5 0 1 0 15 0 a7.5 7.5 0 1 0 -15 0zM1161.67 150 a7.5 7.5 0 1 0 15 0 a7.5 7.5 0 1 0 -15 0zM1096.71 187.5 a7.5 7.5 0 1 0 15 0 a7.5 7.5 0 1 0 -15 0zM1096.71 262.5 a7.5 7.5 0 1 0 15 0 a7.5 7.5 0 1 0 -15 0zM1161.67 300 a7.5 7.5 0 1 0 15 0 a7.5 7.5 0 1 0 -15 0zM1161.67 375 a7.5 7.5 0 1 0 15 0 a7.5 7.5 0 1 0 -15 0zM1096.71 412.5 a7.5 7.5 0 1 0 15 0 a7.5 7.5 0 1 0 -15 0zM1096.71 487.5 a7.5 7.5 0 1 0 15 0 a7.5 7.5 0 1 0 -15 0zM1161.67 525 a7.5 7.5 0 1 0 15 0 a7.5 7.5 0 1 0 -15 0zM1161.67 600 a7.5 7.5 0 1 0 15 0 a7.5 7.5 0 1 0 -15 0zM1096.71 637.5 a7.5 7.5 0 1 0 15 0 a7.5 7.5 0 1 0 -15 0zM1161.67 -75 a7.5 7.5 0 1 0 15 0 a7.5 7.5 0 1 0 -15 0zM1226.62 -37.5 a7.5 7.5 0 1 0 15 0 a7.5 7.5 0 1 0 -15 0zM1226.62 37.5 a7.5 7.5 0 1 0 15 0 a7.5 7.5 0 1 0 -15 0zM1291.57 75 a7.5 7.5 0 1 0 15 0 a7.5 7.5 0 1 0 -15 0zM1291.57 150 a7.5 7.5 0 1 0 15 0 a7.5 7.5 0 1 0 -15 0zM1226.62 187.5 a7.5 7.5 0 1 0 15 0 a7.5 7.5 0 1 0 -15 0zM1226.62 262.5 a7.5 7.5 0 1 0 15 0 a7.5 7.5 0 1 0 -15 0zM1291.57 300 a7.5 7.5 0 1 0 15 0 a7.5 7.5 0 1 0 -15 0zM1291.57 375 a7.5 7.5 0 1 0 15 0 a7.5 7.5 0 1 0 -15 0zM1226.62 412.5 a7.5 7.5 0 1 0 15 0 a7.5 7.5 0 1 0 -15 0zM1226.62 487.5 a7.5 7.5 0 1 0 15 0 a7.5 7.5 0 1 0 -15 0zM1291.57 525 a7.5 7.5 0 1 0 15 0 a7.5 7.5 0 1 0 -15 0zM1291.57 600 a7.5 7.5 0 1 0 15 0 a7.5 7.5 0 1 0 -15 0zM1226.62 637.5 a7.5 7.5 0 1 0 15 0 a7.5 7.5 0 1 0 -15 0zM1291.58 -75 a7.5 7.5 0 1 0 15 0 a7.5 7.5 0 1 0 -15 0zM1356.53 -37.5 a7.5 7.5 0 1 0 15 0 a7.5 7.5 0 1 0 -15 0zM1356.53 37.5 a7.5 7.5 0 1 0 15 0 a7.5 7.5 0 1 0 -15 0zM1291.58 75 a7.5 7.5 0 1 0 15 0 a7.5 7.5 0 1 0 -15 0zM1421.48 75 a7.5 7.5 0 1 0 15 0 a7.5 7.5 0 1 0 -15 0zM1421.48 150 a7.5 7.5 0 1 0 15 0 a7.5 7.5 0 1 0 -15 0zM1356.53 187.5 a7.5 7.5 0 1 0 15 0 a7.5 7.5 0 1 0 -15 0zM1291.58 150 a7.5 7.5 0 1 0 15 0 a7.5 7.5 0 1 0 -15 0zM1356.53 262.5 a7.5 7.5 0 1 0 15 0 a7.5 7.5 0 1 0 -15 0zM1291.58 300 a7.5 7.5 0 1 0 15 0 a7.5 7.5 0 1 0 -15 0zM1421.48 300 a7.5 7.5 0 1 0 15 0 a7.5 7.5 0 1 0 -15 0zM1421.48 375 a7.5 7.5 0 1 0 15 0 a7.5 7.5 0 1 0 -15 0zM1356.53 412.5 a7.5 7.5 0 1 0 15 0 a7.5 7.5 0 1 0 -15 0zM1291.58 375 a7.5 7.5 0 1 0 15 0 a7.5 7.5 0 1 0 -15 0zM1356.53 487.5 a7.5 7.5 0 1 0 15 0 a7.5 7.5 0 1 0 -15 0zM1291.58 525 a7.5 7.5 0 1 0 15 0 a7.5 7.5 0 1 0 -15 0zM1421.48 525 a7.5 7.5 0 1 0 15 0 a7.5 7.5 0 1 0 -15 0zM1421.48 600 a7.5 7.5 0 1 0 15 0 a7.5 7.5 0 1 0 -15 0zM1356.53 637.5 a7.5 7.5 0 1 0 15 0 a7.5 7.5 0 1 0 -15 0zM1291.58 600 a7.5 7.5 0 1 0 15 0 a7.5 7.5 0 1 0 -15 0zM1421.48 -75 a7.5 7.5 0 1 0 15 0 a7.5 7.5 0 1 0 -15 0zM1486.44 -37.5 a7.5 7.5 0 1 0 15 0 a7.5 7.5 0 1 0 -15 0zM1486.44 37.5 a7.5 7.5 0 1 0 15 0 a7.5 7.5 0 1 0 -15 0zM1551.39 75 a7.5 7.5 0 1 0 15 0 a7.5 7.5 0 1 0 -15 0zM1551.39 150 a7.5 7.5 0 1 0 15 0 a7.5 7.5 0 1 0 -15 0zM1486.44 187.5 a7.5 7.5 0 1 0 15 0 a7.5 7.5 0 1 0 -15 0zM1486.44 262.5 a7.5 7.5 0 1 0 15 0 a7.5 7.5 0 1 0 -15 0zM1551.39 300 a7.5 7.5 0 1 0 15 0 a7.5 7.5 0 1 0 -15 0zM1551.39 375 a7.5 7.5 0 1 0 15 0 a7.5 7.5 0 1 0 -15 0zM1486.44 412.5 a7.5 7.5 0 1 0 15 0 a7.5 7.5 0 1 0 -15 0zM1486.44 487.5 a7.5 7.5 0 1 0 15 0 a7.5 7.5 0 1 0 -15 0zM1551.39 525 a7.5 7.5 0 1 0 15 0 a7.5 7.5 0 1 0 -15 0zM1551.39 600 a7.5 7.5 0 1 0 15 0 a7.5 7.5 0 1 0 -15 0zM1486.44 637.5 a7.5 7.5 0 1 0 15 0 a7.5 7.5 0 1 0 -15 0z" fill="rgba(3, 48, 93, 1)"></path>
        <path d="M124.66 407.89L167.96 432.89L167.96 482.89L124.66 507.89L81.35 482.89L81.35 432.89zM211.26 257.89L254.56 282.89L254.56 332.89L211.26 357.89L167.96 332.89L167.96 282.89zM297.87 257.89L341.17 282.89L341.17 332.89L297.87 357.89L254.56 332.89L254.56 282.89zM341.17 332.89L384.47 357.89L384.47 407.89L341.17 432.89L297.87 407.89L297.87 357.89zM297.87 407.89L341.17 432.89L341.17 482.89L297.87 507.89L254.56 482.89L254.56 432.89zM384.47 -42.11L427.77 -17.11L427.77 32.89L384.47 57.89L341.17 32.89L341.17 -17.11zM514.38 482.89L557.68 507.89L557.68 557.89L514.38 582.89L471.08 557.89L471.08 507.89zM557.68 107.89L600.98 132.89L600.98 182.89L557.68 207.89L514.38 182.89L514.38 132.89zM600.98 482.89L644.28 507.89L644.28 557.89L600.98 582.89L557.68 557.89L557.68 507.89zM687.59 332.89L730.89 357.89L730.89 407.89L687.59 432.89L644.28 407.89L644.28 357.89zM774.19 482.89L817.5 507.89L817.5 557.89L774.19 582.89L730.89 557.89L730.89 507.89zM817.5 107.89L860.8 132.89L860.8 182.89L817.5 207.89L774.19 182.89L774.19 132.89zM817.5 257.89L860.8 282.89L860.8 332.89L817.5 357.89L774.19 332.89L774.19 282.89zM947.4 182.89L990.71 207.89L990.71 257.89L947.4 282.89L904.1 257.89L904.1 207.89zM1034.01 32.89L1077.31 57.89L1077.31 107.89L1034.01 132.89L990.71 107.89L990.71 57.89zM1077.31 107.89L1120.61 132.89L1120.61 182.89L1077.31 207.89L1034.01 182.89L1034.01 132.89zM1120.61 182.89L1163.91 207.89L1163.91 257.89L1120.61 282.89L1077.31 257.89L1077.31 207.89zM1207.22 182.89L1250.52 207.89L1250.52 257.89L1207.22 282.89L1163.91 257.89L1163.91 207.89zM1163.91 407.89L1207.22 432.89L1207.22 482.89L1163.91 507.89L1120.61 482.89L1120.61 432.89zM1250.52 407.89L1293.82 432.89L1293.82 482.89L1250.52 507.89L1207.22 482.89L1207.22 432.89zM1337.13 107.89L1380.43 132.89L1380.43 182.89L1337.13 207.89L1293.82 182.89L1293.82 132.89zM1337.13 257.89L1380.43 282.89L1380.43 332.89L1337.13 357.89L1293.82 332.89L1293.82 282.89zM1423.73 -42.11L1467.03 -17.11L1467.03 32.89L1423.73 57.89L1380.43 32.89L1380.43 -17.11zM1467.03 182.89L1510.34 207.89L1510.34 257.89L1467.03 282.89L1423.73 257.89L1423.73 207.89zM1467.03 332.89L1510.34 357.89L1510.34 407.89L1467.03 432.89L1423.73 407.89L1423.73 357.89z" stroke="rgba(6, 80, 156, 0.93)" stroke-width="2"></path>
    </g>
    <defs>
        <mask id="SvgjsMask1021">
            <rect width="1440" height="560" fill="#ffffff"></rect>
        </mask>
    </defs>
</svg>