<svg xmlns="http://www.w3.org/2000/svg" version="1.1" xmlns:xlink="http://www.w3.org/1999/xlink" xmlns:svgjs="http://svgjs.com/svgjs" width="1440" height="560" preserveAspectRatio="none" viewBox="0 0 1440 560">
    <g mask="url(&quot;#SvgjsMask1016&quot;)" fill="none">
        <rect width="1440" height="560" x="0" y="0" fill="rgba(14, 42, 71, 1)"></rect>
        <path d="M1120.12 393.96 a35.18 35.18 0 1 0 70.36 0 a35.18 35.18 0 1 0 -70.36 0z" fill="#e73635"></path>
        <path d="M869.06 211.33a30.92 30.92 0 1 0-31.63-53.14z" stroke="#037b0b"></path>
        <path d="M911.32 71.45a55.28 55.28 0 1 0 14.73-109.58z" fill="#037b0b"></path>
        <path d="M1006.73 175.72a48.75 48.75 0 1 0-82.72-51.61z" stroke="#e73635"></path>
        <path d="M1330 442.17L1363.16 442.17L1363.16 475.33L1330 475.33z" stroke="#e73635"></path>
        <path d="M255.43 483.4L292.78 483.4L292.78 520.75L255.43 520.75z" stroke="#d3b714"></path>
        <path d="M362.86 18.62L364.97 18.62L364.97 20.73L362.86 20.73z" stroke="#e73635"></path>
        <path d="M400.82 513.16a23.4 23.4 0 1 0 39.44 25.18z" fill="#e73635"></path>
        <path d="M59.05 183.85a10.99 10.99 0 1 0-14.7 16.34z" fill="#e73635"></path>
        <path d="M744.15 525.19L784.85 525.19L784.85 526.93L744.15 526.93z" stroke="#d3b714"></path>
        <path d="M485.65 91.81L488.04 91.81L488.04 101.21L485.65 101.21z" stroke="#e73635"></path>
        <path d="M854.02 14.39 a23.77 23.77 0 1 0 47.54 0 a23.77 23.77 0 1 0 -47.54 0z" fill="#e73635"></path>
        <path d="M300.6 50.03a4.11 4.11 0 1 0-4.3 7z" fill="#e73635"></path>
        <path d="M952.41 288.93L962.9 288.93L962.9 299.42L952.41 299.42z" stroke="#e73635"></path>
        <path d="M883.78 382.82 a44 44 0 1 0 88 0 a44 44 0 1 0 -88 0z" stroke="#037b0b"></path>
        <path d="M383.35 303.41 a4.4 4.4 0 1 0 8.8 0 a4.4 4.4 0 1 0 -8.8 0z" fill="#037b0b"></path>
        <path d="M187.33 543.99L225.69 543.99L225.69 582.45L187.33 582.45z" fill="#d3b714"></path>
        <path d="M398.38 90.1 a1.52 1.52 0 1 0 3.04 0 a1.52 1.52 0 1 0 -3.04 0z" fill="#e73635"></path>
        <path d="M214.67 555.27L224.73 555.27L224.73 583.25L214.67 583.25z" fill="#e73635"></path>
        <path d="M1116.62 468.9 a52.37 52.37 0 1 0 104.74 0 a52.37 52.37 0 1 0 -104.74 0z" stroke="#037b0b"></path>
        <path d="M605.98 202.77L608.88 202.77L608.88 205.67L605.98 205.67z" stroke="#037b0b"></path>
        <path d="M905.94 10.15 a26.24 26.24 0 1 0 52.48 0 a26.24 26.24 0 1 0 -52.48 0z" stroke="#d3b714"></path>
        <path d="M272.9 333.6a20.04 20.04 0 1 0 37.1 15.15z" fill="#d3b714"></path>
        <path d="M110.69 145.97L135.13 145.97L135.13 148.39L110.69 148.39z" fill="#037b0b"></path>
        <path d="M222.81 378.45 a54.92 54.92 0 1 0 109.84 0 a54.92 54.92 0 1 0 -109.84 0z" stroke="#037b0b"></path>
        <path d="M708.76 312.96 a8.64 8.64 0 1 0 17.28 0 a8.64 8.64 0 1 0 -17.28 0z" fill="#037b0b"></path>
        <path d="M-1.93 226.14a11.93 11.93 0 1 0 14.72 18.78z" fill="#e73635"></path>
        <path d="M1227.68 387.25L1258.81 387.25L1258.81 418.38L1227.68 418.38z" stroke="#037b0b"></path>
        <path d="M1374.07 335.36L1429.01 335.36L1429.01 390.3L1374.07 390.3z" stroke="#d3b714"></path>
        <path d="M423.95 439.94 a37.72 37.72 0 1 0 75.44 0 a37.72 37.72 0 1 0 -75.44 0z" fill="#e73635"></path>
        <path d="M1231.93 394.72 a38.12 38.12 0 1 0 76.24 0 a38.12 38.12 0 1 0 -76.24 0z" fill="#d3b714"></path>
        <path d="M-23.81 467.4 a27.05 27.05 0 1 0 54.1 0 a27.05 27.05 0 1 0 -54.1 0z" stroke="#e73635"></path>
        <path d="M803.82 9.99a8.59 8.59 0 1 0-14.58-9.09z" fill="#037b0b"></path>
    </g>
    <defs>
        <mask id="SvgjsMask1016">
            <rect width="1440" height="560" fill="#ffffff"></rect>
        </mask>
    </defs>
</svg>